<svg id="e4fa7130-e528-476c-9611-a23d7ff1e0fc" data-name="レイヤー 1" xmlns="http://www.w3.org/2000/svg" xmlns:xlink="http://www.w3.org/1999/xlink" viewBox="0 0 595.28 841.89"><defs><style>.a10c1496-0d32-4c44-b61c-06cb58be8634,.b040f09f-1d1c-4aaf-b941-847a6a1e0445{fill:none;}.b040f09f-1d1c-4aaf-b941-847a6a1e0445{clip-rule:evenodd;}.f9d63a3d-7416-4cbb-a905-6d48571acd35{fill:#0096fa;fill-rule:evenodd;}.f565eb17-bf30-43e5-9354-9000f2032ec7{clip-path:url(#ed852739-4814-4b0a-9ea6-50e586b0f9b1);}.ada9cd64-1233-4a3d-8c99-a5d611f62c59{clip-path:url(#ae1dc84b-0900-478c-ba87-b0d3a2da430d);}.f21e887e-fae0-452d-b694-8ff0a3a51d15{fill:#fff;}</style><clipPath id="ed852739-4814-4b0a-9ea6-50e586b0f9b1"><path class="b040f09f-1d1c-4aaf-b941-847a6a1e0445" d="M428.71,301.36c-28.6-25-68.64-39.42-115.18-39.42-121.29,0-203.79,93.64-203.79,93.64L133,392.49s12.86,1.07,6-20.66c5.88-11.12,17.39-26.07,39.86-43.34V574.34c-9.68,2.73-22.49,7.86-13.76,16.6h66.78c8.81-8.82-5.07-14.13-13.53-16.6v-58s45.78,18,95.14,18c43.37,0,82.83-12.9,112.18-36.21s48.26-57.79,48.15-97.35a130.55,130.55,0,0,0-45.15-99.39m-119.25,210c-38,0-70-7.34-91.07-17.74V309.21c23.16-16.47,60.73-26.61,91.07-26.54,36.85,0,65.8,13.95,85.36,35.09s30.21,49.52,30.31,82.37c-.12,32-11.52,58.35-31.82,78.56C373,498.74,343.5,511.41,309.46,511.39Z"/></clipPath><clipPath id="ae1dc84b-0900-478c-ba87-b0d3a2da430d"><rect class="a10c1496-0d32-4c44-b61c-06cb58be8634" x="41.64" y="164.94" width="512" height="512"/></clipPath></defs><path class="f9d63a3d-7416-4cbb-a905-6d48571acd35" d="M553.64,270.33c0-58-47.43-105.38-105.39-105.39H147c-58,0-105.39,47.43-105.39,105.39V571.55c0,58,47.42,105.39,105.39,105.39H448.25c58,0,105.39-47.42,105.39-105.39C553.34,600.45,553.64,270.33,553.64,270.33Z"/><g id="b0244e04-a600-4358-8539-2ad7be994930" data-name="p"><g class="f565eb17-bf30-43e5-9354-9000f2032ec7"><g class="ada9cd64-1233-4a3d-8c99-a5d611f62c59"><rect class="f21e887e-fae0-452d-b694-8ff0a3a51d15" x="104.74" y="256.94" width="374.11" height="339"/></g></g></g></svg>